<svg viewBox="0 0 700 500" xmlns="http://www.w3.org/2000/svg">
  <defs>
    <linearGradient id="mbg" x1="0" y1="0" x2="0" y2="1">
      <stop offset="0%" stop-color="#EFEDE6"/>
      <stop offset="100%" stop-color="#D9D6CB"/>
    </linearGradient>
  </defs>
  <rect width="700" height="500" fill="url(#mbg)"/>
  <!-- studio windows -->
  <g opacity="0.6" stroke="#B9B6AC" stroke-width="4">
    <line x1="60" y1="0" x2="60" y2="380"/>
    <line x1="220" y1="0" x2="220" y2="380"/>
    <line x1="380" y1="0" x2="380" y2="380"/>
    <line x1="540" y1="0" x2="540" y2="380"/>
    <line x1="0" y1="380" x2="700" y2="380"/>
  </g>
  <rect x="0" y="380" width="700" height="120" fill="#C8C3B6"/>

  <!-- runner silhouette dark -->
  <g transform="translate(300,180)">
    <ellipse cx="60" cy="330" rx="90" ry="14" fill="#16231F" opacity="0.15"/>
    <circle cx="70" cy="30" r="24" fill="#16231F"/>
    <path d="M45 60 Q75 48 105 62 L112 160 Q70 178 35 160 Z" fill="#16231F"/>
    <path d="M40 155 Q10 210 25 270 Q30 300 15 330" stroke="#16231F" stroke-width="18" stroke-linecap="round" fill="none"/>
    <path d="M100 158 Q140 190 130 240" stroke="#16231F" stroke-width="18" stroke-linecap="round" fill="none"/>
    <path d="M50 68 Q10 80 0 120" stroke="#16231F" stroke-width="14" stroke-linecap="round" fill="none"/>
    <path d="M95 68 Q140 78 150 40" stroke="#16231F" stroke-width="14" stroke-linecap="round" fill="none"/>
    <ellipse cx="18" cy="332" rx="22" ry="10" fill="#16231F"/>
  </g>

  <!-- soft green accent glow -->
  <circle cx="560" cy="120" r="120" fill="#1E8E5A" opacity="0.12"/>
</svg>
