<svg viewBox="0 0 500 400" xmlns="http://www.w3.org/2000/svg">
  <defs>
    <linearGradient id="sbg" x1="0" y1="0" x2="1" y2="1">
      <stop offset="0%" stop-color="#16231F"/>
      <stop offset="100%" stop-color="#2B3F38"/>
    </linearGradient>
  </defs>
  <rect width="500" height="400" fill="url(#sbg)"/>
  <!-- ropes -->
  <path d="M60 220 Q140 120 220 220 Q300 320 380 220" stroke="#1E8E5A" stroke-width="10" fill="none" stroke-linecap="round"/>
  <path d="M60 240 Q150 340 240 240 Q320 160 400 240" stroke="#E3A83B" stroke-width="8" fill="none" stroke-linecap="round" opacity="0.8"/>
  <!-- anchor -->
  <rect x="40" y="200" width="30" height="60" rx="6" fill="#0F1815"/>
  <!-- figure -->
  <g transform="translate(250,150)">
    <circle cx="40" cy="20" r="22" fill="#DEF2E4"/>
    <path d="M15 55 Q40 40 65 55 L70 140 Q40 155 10 140 Z" fill="#1E8E5A"/>
    <path d="M15 60 Q-20 90 -10 140" stroke="#DEF2E4" stroke-width="14" stroke-linecap="round" fill="none"/>
    <path d="M65 60 Q100 90 90 140" stroke="#DEF2E4" stroke-width="14" stroke-linecap="round" fill="none"/>
    <path d="M20 138 L10 220" stroke="#0F1815" stroke-width="16" stroke-linecap="round"/>
    <path d="M60 138 L70 220" stroke="#0F1815" stroke-width="16" stroke-linecap="round"/>
  </g>
  <circle cx="80" cy="80" r="60" fill="#1E8E5A" opacity="0.12"/>
</svg>
